<svg xmlns="http://www.w3.org/2000/svg" xmlns:xlink="http://www.w3.org/1999/xlink" fill="none" version="1.1" width="29.131622314453125" height="30.2861328125" viewBox="0 0 29.131622314453125 30.2861328125"><g style="mix-blend-mode:passthrough"><g><path d="" fill="#909090" fill-opacity="0"/></g><g><path d="M1.4565833514404296,12.807037353515625C1.4565833514404296,12.807037353515625,27.67501335144043,12.807037353515625,27.67501335144043,12.807037353515625C28.64611335144043,12.807037353515625,29.13161335144043,13.292572353515625,29.13161335144043,14.263607353515624C29.13161335144043,14.263607353515624,29.13161335144043,28.829437353515626,29.13161335144043,28.829437353515626C29.13161335144043,29.800437353515626,28.64611335144043,30.286037353515624,27.67501335144043,30.286037353515624C27.67501335144043,30.286037353515624,1.4565833514404296,30.286037353515624,1.4565833514404296,30.286037353515624C0.48553235144042967,30.286037353515624,0.0000133514404296875,29.800437353515626,0.0000133514404296875,28.829437353515626C0.0000133514404296875,28.829437353515626,0.0000133514404296875,14.263607353515624,0.0000133514404296875,14.263607353515624C0.0000133514404296875,13.292572353515625,0.48553235144042967,12.807037353515625,1.4565833514404296,12.807037353515625C1.4565833514404296,12.807037353515625,1.4565833514404296,12.807037353515625,1.4565833514404296,12.807037353515625Z" fill="#4A90E2" fill-opacity="0.6000000238418579"/></g><g><path d="M15.004247619934082,0.19885977954101564C15.004247619934082,0.19885977954101564,23.917027619934082,10.384742779541016,23.917027619934082,10.384742779541016C24.067327619934083,10.556942779541016,24.10312761993408,10.801242779541015,24.008327619934082,11.009342779541015C23.913527619934083,11.217342779541015,23.70582761993408,11.350742779541015,23.477227619934084,11.350442779541016C23.477227619934084,11.350442779541016,5.654470619934082,11.350442779541016,5.654470619934082,11.350442779541016C5.4258326199340825,11.350742779541015,5.218130619934082,11.217342779541015,5.123357819934082,11.009342779541015C5.028570219934082,10.801242779541015,5.064260539934082,10.556942779541016,5.214590619934082,10.384742779541016C5.214590619934082,10.384742779541016,14.128837619934082,0.19885977954101564,14.128837619934082,0.19885977954101564C14.239477619934082,0.07244877954101563,14.399277619934082,-0.000057220458984375,14.567267619934082,-0.000057220458984375C14.735247619934082,-0.000057220458984375,14.895067619934082,0.07244877954101563,15.005707619934082,0.19885977954101564C15.005707619934082,0.19885977954101564,15.004247619934082,0.19885977954101564,15.004247619934082,0.19885977954101564Z" fill="#4A90E2" fill-opacity="1"/></g><g><path d="M10.196065902709961,11.350433349609375C10.196065902709961,11.350433349609375,18.93556590270996,11.350433349609375,18.93556590270996,11.350433349609375C18.93556590270996,11.350433349609375,18.93556590270996,23.003033349609375,18.93556590270996,23.003033349609375C18.93556590270996,23.003033349609375,10.196065902709961,23.003033349609375,10.196065902709961,23.003033349609375C10.196065902709961,23.003033349609375,10.196065902709961,11.350433349609375,10.196065902709961,11.350433349609375C10.196065902709961,11.350433349609375,10.196065902709961,11.350433349609375,10.196065902709961,11.350433349609375ZM10.196065902709961,24.459733349609373C10.196065902709961,24.459733349609373,18.93556590270996,24.459733349609373,18.93556590270996,24.459733349609373C18.93556590270996,24.459733349609373,18.93556590270996,25.916233349609374,18.93556590270996,25.916233349609374C18.93556590270996,25.916233349609374,10.196065902709961,25.916233349609374,10.196065902709961,25.916233349609374C10.196065902709961,25.916233349609374,10.196065902709961,24.459733349609373,10.196065902709961,24.459733349609373C10.196065902709961,24.459733349609373,10.196065902709961,24.459733349609373,10.196065902709961,24.459733349609373Z" fill="#4A90E2" fill-opacity="1"/></g><g><path d="M14.857168197631836,20.38122158203125C14.857168197631836,21.18567158203125,15.509268197631837,21.83777158203125,16.313708197631836,21.83777158203125C17.118218197631837,21.83777158203125,17.770378197631835,21.18567158203125,17.770378197631835,20.38122158203125C17.770378197631835,19.57678258203125,17.118218197631837,18.92462158203125,16.313708197631836,18.92462158203125C15.509268197631837,18.92462158203125,14.857168197631836,19.57678258203125,14.857168197631836,20.38122158203125C14.857168197631836,20.38122158203125,14.857168197631836,20.38122158203125,14.857168197631836,20.38122158203125Z" fill="#E02020" fill-opacity="1"/></g></g></svg>